<?xml version="1.0" encoding="UTF-8" standalone="no"?>
<!DOCTYPE svg PUBLIC "-//W3C//DTD SVG 1.1//EN"
 "http://www.w3.org/Graphics/SVG/1.1/DTD/svg11.dtd">
<!-- Generated by graphviz version 2.47.0 (20210316.0004)
 -->
<!-- Title: dbml Pages: 1 -->
<svg width="2212pt" height="1353pt"
 viewBox="0.00 0.00 2211.86 1353.07" xmlns="http://www.w3.org/2000/svg" xmlns:xlink="http://www.w3.org/1999/xlink">
<g id="graph0" class="graph" transform="scale(1 1) rotate(0) translate(4 1349.07)">
<title>dbml</title>
<!-- userRole -->
<g id="userRole" class="node">
<title>userRole</title>
<ellipse fill="none" stroke="black" stroke-width="0" cx="2007.29" cy="-502.11" rx="196.65" ry="130.22"/>
<polygon fill="#29235c" stroke="transparent" points="1870.29,-532.11 1870.29,-592.11 2144.29,-592.11 2144.29,-532.11 1870.29,-532.11"/>
<polygon fill="none" stroke="#29235c" points="1870.29,-532.11 1870.29,-592.11 2144.29,-592.11 2144.29,-532.11 1870.29,-532.11"/>
<text text-anchor="start" x="1881.03" y="-553.31" font-family="Helvetica,sans-Serif" font-weight="bold" font-size="32.00" fill="#ffffff"> &#160;&#160;&#160;&#160;&#160;&#160;userRole &#160;&#160;&#160;&#160;&#160;&#160;</text>
<polygon fill="#e7e2dd" stroke="transparent" points="1870.29,-472.11 1870.29,-532.11 2144.29,-532.11 2144.29,-472.11 1870.29,-472.11"/>
<polygon fill="none" stroke="#29235c" points="1870.29,-472.11 1870.29,-532.11 2144.29,-532.11 2144.29,-472.11 1870.29,-472.11"/>
<text text-anchor="start" x="1923.71" y="-493.31" font-family="Helvetica,sans-Serif" font-style="italic" font-size="32.00" fill="#1d71b8"> &#160;&#160;&#160;BASIC &#160;&#160;&#160;</text>
<polygon fill="#e7e2dd" stroke="transparent" points="1870.29,-412.11 1870.29,-472.11 2144.29,-472.11 2144.29,-412.11 1870.29,-412.11"/>
<polygon fill="none" stroke="#29235c" points="1870.29,-412.11 1870.29,-472.11 2144.29,-472.11 2144.29,-412.11 1870.29,-412.11"/>
<text text-anchor="start" x="1920.17" y="-433.31" font-family="Helvetica,sans-Serif" font-style="italic" font-size="32.00" fill="#1d71b8"> &#160;&#160;&#160;ADMIN &#160;&#160;&#160;</text>
<polygon fill="none" stroke="#29235c" stroke-width="2" points="1869.29,-411.11 1869.29,-593.11 2145.29,-593.11 2145.29,-411.11 1869.29,-411.11"/>
</g>
<!-- categories -->
<g id="categories" class="node">
<title>categories</title>
<ellipse fill="none" stroke="black" stroke-width="0" cx="869.68" cy="-130.11" rx="255.03" ry="130.22"/>
<polygon fill="#1d71b8" stroke="transparent" points="691.68,-160.11 691.68,-220.11 1048.68,-220.11 1048.68,-160.11 691.68,-160.11"/>
<polygon fill="none" stroke="#29235c" points="691.68,-160.11 691.68,-220.11 1048.68,-220.11 1048.68,-160.11 691.68,-160.11"/>
<text text-anchor="start" x="734.13" y="-181.31" font-family="Helvetica,sans-Serif" font-weight="bold" font-size="32.00" fill="#ffffff"> &#160;&#160;&#160;&#160;&#160;&#160;categories &#160;&#160;&#160;&#160;&#160;&#160;</text>
<polygon fill="#e7e2dd" stroke="transparent" points="691.68,-100.11 691.68,-160.11 1048.68,-160.11 1048.68,-100.11 691.68,-100.11"/>
<polygon fill="none" stroke="#29235c" points="691.68,-100.11 691.68,-160.11 1048.68,-160.11 1048.68,-100.11 691.68,-100.11"/>
<text text-anchor="start" x="702.68" y="-121.31" font-family="Helvetica,sans-Serif" font-weight="bold" font-size="32.00" fill="#29235c">id</text>
<text text-anchor="start" x="727.57" y="-121.31" font-family="Helvetica,sans-Serif" font-size="32.00" fill="#29235c"> &#160;&#160;&#160;</text>
<text text-anchor="start" x="938.12" y="-121.31" font-family="Helvetica,sans-Serif" font-style="italic" font-size="32.00" fill="#29235c">uuid</text>
<text text-anchor="start" x="998.59" y="-121.31" font-family="Helvetica,sans-Serif" font-size="32.00" fill="#29235c"> </text>
<text text-anchor="start" x="1007.48" y="-121.31" font-family="Helvetica,sans-Serif" font-weight="bold" font-size="32.00" fill="#29235c">(!)</text>
<polygon fill="#e7e2dd" stroke="transparent" points="691.68,-40.11 691.68,-100.11 1048.68,-100.11 1048.68,-40.11 691.68,-40.11"/>
<polygon fill="none" stroke="#29235c" points="691.68,-40.11 691.68,-100.11 1048.68,-100.11 1048.68,-40.11 691.68,-40.11"/>
<text text-anchor="start" x="702.38" y="-60.31" font-family="Helvetica,sans-Serif" font-size="32.00" fill="#29235c">name &#160;&#160;&#160;</text>
<text text-anchor="start" x="817.46" y="-61.31" font-family="Helvetica,sans-Serif" font-style="italic" font-size="32.00" fill="#29235c">varchar(255)</text>
<text text-anchor="start" x="998.81" y="-61.31" font-family="Helvetica,sans-Serif" font-size="32.00" fill="#29235c"> </text>
<text text-anchor="start" x="1007.7" y="-61.31" font-family="Helvetica,sans-Serif" font-weight="bold" font-size="32.00" fill="#29235c">(!)</text>
<polygon fill="none" stroke="#29235c" stroke-width="2" points="690.18,-39.11 690.18,-221.11 1049.18,-221.11 1049.18,-39.11 690.18,-39.11"/>
</g>
<!-- comments -->
<g id="comments" class="node">
<title>comments</title>
<ellipse fill="none" stroke="black" stroke-width="0" cx="277.89" cy="-597.11" rx="277.79" ry="299.63"/>
<polygon fill="#1d71b8" stroke="transparent" points="83.89,-747.11 83.89,-807.11 472.89,-807.11 472.89,-747.11 83.89,-747.11"/>
<polygon fill="none" stroke="#29235c" points="83.89,-747.11 83.89,-807.11 472.89,-807.11 472.89,-747.11 83.89,-747.11"/>
<text text-anchor="start" x="142.36" y="-768.31" font-family="Helvetica,sans-Serif" font-weight="bold" font-size="32.00" fill="#ffffff"> &#160;&#160;&#160;&#160;&#160;&#160;comments &#160;&#160;&#160;&#160;&#160;&#160;</text>
<polygon fill="#e7e2dd" stroke="transparent" points="83.89,-687.11 83.89,-747.11 472.89,-747.11 472.89,-687.11 83.89,-687.11"/>
<polygon fill="none" stroke="#29235c" points="83.89,-687.11 83.89,-747.11 472.89,-747.11 472.89,-687.11 83.89,-687.11"/>
<text text-anchor="start" x="94.89" y="-708.31" font-family="Helvetica,sans-Serif" font-weight="bold" font-size="32.00" fill="#29235c">id</text>
<text text-anchor="start" x="119.78" y="-708.31" font-family="Helvetica,sans-Serif" font-size="32.00" fill="#29235c"> &#160;&#160;&#160;</text>
<text text-anchor="start" x="362.33" y="-708.31" font-family="Helvetica,sans-Serif" font-style="italic" font-size="32.00" fill="#29235c">uuid</text>
<text text-anchor="start" x="422.8" y="-708.31" font-family="Helvetica,sans-Serif" font-size="32.00" fill="#29235c"> </text>
<text text-anchor="start" x="431.69" y="-708.31" font-family="Helvetica,sans-Serif" font-weight="bold" font-size="32.00" fill="#29235c">(!)</text>
<polygon fill="#e7e2dd" stroke="transparent" points="83.89,-627.11 83.89,-687.11 472.89,-687.11 472.89,-627.11 83.89,-627.11"/>
<polygon fill="none" stroke="#29235c" points="83.89,-627.11 83.89,-687.11 472.89,-687.11 472.89,-627.11 83.89,-627.11"/>
<text text-anchor="start" x="94.89" y="-647.31" font-family="Helvetica,sans-Serif" font-size="32.00" fill="#29235c">content &#160;&#160;&#160;</text>
<text text-anchor="start" x="241.46" y="-648.31" font-family="Helvetica,sans-Serif" font-style="italic" font-size="32.00" fill="#29235c">varchar(500)</text>
<text text-anchor="start" x="422.8" y="-648.31" font-family="Helvetica,sans-Serif" font-size="32.00" fill="#29235c"> </text>
<text text-anchor="start" x="431.69" y="-648.31" font-family="Helvetica,sans-Serif" font-weight="bold" font-size="32.00" fill="#29235c">(!)</text>
<polygon fill="#e7e2dd" stroke="transparent" points="83.89,-567.11 83.89,-627.11 472.89,-627.11 472.89,-567.11 83.89,-567.11"/>
<polygon fill="none" stroke="#29235c" points="83.89,-567.11 83.89,-627.11 472.89,-627.11 472.89,-567.11 83.89,-567.11"/>
<text text-anchor="start" x="94.89" y="-587.31" font-family="Helvetica,sans-Serif" font-size="32.00" fill="#29235c">userId &#160;&#160;&#160;</text>
<text text-anchor="start" x="362.33" y="-588.31" font-family="Helvetica,sans-Serif" font-style="italic" font-size="32.00" fill="#29235c">uuid</text>
<text text-anchor="start" x="422.8" y="-588.31" font-family="Helvetica,sans-Serif" font-size="32.00" fill="#29235c"> </text>
<text text-anchor="start" x="431.69" y="-588.31" font-family="Helvetica,sans-Serif" font-weight="bold" font-size="32.00" fill="#29235c">(!)</text>
<polygon fill="#e7e2dd" stroke="transparent" points="83.89,-507.11 83.89,-567.11 472.89,-567.11 472.89,-507.11 83.89,-507.11"/>
<polygon fill="none" stroke="#29235c" points="83.89,-507.11 83.89,-567.11 472.89,-567.11 472.89,-507.11 83.89,-507.11"/>
<text text-anchor="start" x="94.89" y="-527.31" font-family="Helvetica,sans-Serif" font-size="32.00" fill="#29235c">postId &#160;&#160;&#160;</text>
<text text-anchor="start" x="362.33" y="-528.31" font-family="Helvetica,sans-Serif" font-style="italic" font-size="32.00" fill="#29235c">uuid</text>
<text text-anchor="start" x="422.8" y="-528.31" font-family="Helvetica,sans-Serif" font-size="32.00" fill="#29235c"> </text>
<text text-anchor="start" x="431.69" y="-528.31" font-family="Helvetica,sans-Serif" font-weight="bold" font-size="32.00" fill="#29235c">(!)</text>
<polygon fill="#e7e2dd" stroke="transparent" points="83.89,-447.11 83.89,-507.11 472.89,-507.11 472.89,-447.11 83.89,-447.11"/>
<polygon fill="none" stroke="#29235c" points="83.89,-447.11 83.89,-507.11 472.89,-507.11 472.89,-447.11 83.89,-447.11"/>
<text text-anchor="start" x="94.89" y="-467.31" font-family="Helvetica,sans-Serif" font-size="32.00" fill="#29235c">createdAt &#160;&#160;&#160;</text>
<text text-anchor="start" x="275.24" y="-468.31" font-family="Helvetica,sans-Serif" font-style="italic" font-size="32.00" fill="#29235c">timestamp</text>
<text text-anchor="start" x="422.8" y="-468.31" font-family="Helvetica,sans-Serif" font-size="32.00" fill="#29235c"> </text>
<text text-anchor="start" x="431.69" y="-468.31" font-family="Helvetica,sans-Serif" font-weight="bold" font-size="32.00" fill="#29235c">(!)</text>
<polygon fill="#e7e2dd" stroke="transparent" points="83.89,-387.11 83.89,-447.11 472.89,-447.11 472.89,-387.11 83.89,-387.11"/>
<polygon fill="none" stroke="#29235c" points="83.89,-387.11 83.89,-447.11 472.89,-447.11 472.89,-387.11 83.89,-387.11"/>
<text text-anchor="start" x="94.68" y="-407.31" font-family="Helvetica,sans-Serif" font-size="32.00" fill="#29235c">updatedAt &#160;&#160;&#160;</text>
<text text-anchor="start" x="275.57" y="-408.31" font-family="Helvetica,sans-Serif" font-style="italic" font-size="32.00" fill="#29235c">timestamp</text>
<text text-anchor="start" x="423.13" y="-408.31" font-family="Helvetica,sans-Serif" font-size="32.00" fill="#29235c"> </text>
<text text-anchor="start" x="432.02" y="-408.31" font-family="Helvetica,sans-Serif" font-weight="bold" font-size="32.00" fill="#29235c">(!)</text>
<polygon fill="none" stroke="#29235c" stroke-width="2" points="82.39,-386.11 82.39,-808.11 473.39,-808.11 473.39,-386.11 82.39,-386.11"/>
</g>
<!-- posts -->
<g id="posts" class="node">
<title>posts</title>
<ellipse fill="none" stroke="black" stroke-width="0" cx="869.68" cy="-616.11" rx="277.79" ry="299.63"/>
<polygon fill="#1d71b8" stroke="transparent" points="675.68,-766.11 675.68,-826.11 1064.68,-826.11 1064.68,-766.11 675.68,-766.11"/>
<polygon fill="none" stroke="#29235c" points="675.68,-766.11 675.68,-826.11 1064.68,-826.11 1064.68,-766.11 675.68,-766.11"/>
<text text-anchor="start" x="769.69" y="-787.31" font-family="Helvetica,sans-Serif" font-weight="bold" font-size="32.00" fill="#ffffff"> &#160;&#160;&#160;&#160;&#160;&#160;posts &#160;&#160;&#160;&#160;&#160;&#160;</text>
<polygon fill="#e7e2dd" stroke="transparent" points="675.68,-706.11 675.68,-766.11 1064.68,-766.11 1064.68,-706.11 675.68,-706.11"/>
<polygon fill="none" stroke="#29235c" points="675.68,-706.11 675.68,-766.11 1064.68,-766.11 1064.68,-706.11 675.68,-706.11"/>
<text text-anchor="start" x="686.68" y="-727.31" font-family="Helvetica,sans-Serif" font-weight="bold" font-size="32.00" fill="#29235c">id</text>
<text text-anchor="start" x="711.57" y="-727.31" font-family="Helvetica,sans-Serif" font-size="32.00" fill="#29235c"> &#160;&#160;&#160;</text>
<text text-anchor="start" x="954.12" y="-727.31" font-family="Helvetica,sans-Serif" font-style="italic" font-size="32.00" fill="#29235c">uuid</text>
<text text-anchor="start" x="1014.59" y="-727.31" font-family="Helvetica,sans-Serif" font-size="32.00" fill="#29235c"> </text>
<text text-anchor="start" x="1023.48" y="-727.31" font-family="Helvetica,sans-Serif" font-weight="bold" font-size="32.00" fill="#29235c">(!)</text>
<polygon fill="#e7e2dd" stroke="transparent" points="675.68,-646.11 675.68,-706.11 1064.68,-706.11 1064.68,-646.11 675.68,-646.11"/>
<polygon fill="none" stroke="#29235c" points="675.68,-646.11 675.68,-706.11 1064.68,-706.11 1064.68,-646.11 675.68,-646.11"/>
<text text-anchor="start" x="686.68" y="-666.31" font-family="Helvetica,sans-Serif" font-size="32.00" fill="#29235c">title &#160;&#160;&#160;</text>
<text text-anchor="start" x="833.24" y="-667.31" font-family="Helvetica,sans-Serif" font-style="italic" font-size="32.00" fill="#29235c">varchar(255)</text>
<text text-anchor="start" x="1014.59" y="-667.31" font-family="Helvetica,sans-Serif" font-size="32.00" fill="#29235c"> </text>
<text text-anchor="start" x="1023.48" y="-667.31" font-family="Helvetica,sans-Serif" font-weight="bold" font-size="32.00" fill="#29235c">(!)</text>
<polygon fill="#e7e2dd" stroke="transparent" points="675.68,-586.11 675.68,-646.11 1064.68,-646.11 1064.68,-586.11 675.68,-586.11"/>
<polygon fill="none" stroke="#29235c" points="675.68,-586.11 675.68,-646.11 1064.68,-646.11 1064.68,-586.11 675.68,-586.11"/>
<text text-anchor="start" x="686.68" y="-606.31" font-family="Helvetica,sans-Serif" font-size="32.00" fill="#29235c">content &#160;&#160;&#160;</text>
<text text-anchor="start" x="833.24" y="-607.31" font-family="Helvetica,sans-Serif" font-style="italic" font-size="32.00" fill="#29235c">varchar(255)</text>
<text text-anchor="start" x="1014.59" y="-607.31" font-family="Helvetica,sans-Serif" font-size="32.00" fill="#29235c"> </text>
<text text-anchor="start" x="1023.48" y="-607.31" font-family="Helvetica,sans-Serif" font-weight="bold" font-size="32.00" fill="#29235c">(!)</text>
<polygon fill="#e7e2dd" stroke="transparent" points="675.68,-526.11 675.68,-586.11 1064.68,-586.11 1064.68,-526.11 675.68,-526.11"/>
<polygon fill="none" stroke="#29235c" points="675.68,-526.11 675.68,-586.11 1064.68,-586.11 1064.68,-526.11 675.68,-526.11"/>
<text text-anchor="start" x="686.68" y="-546.31" font-family="Helvetica,sans-Serif" font-size="32.00" fill="#29235c">authorId &#160;&#160;&#160;</text>
<text text-anchor="start" x="954.12" y="-547.31" font-family="Helvetica,sans-Serif" font-style="italic" font-size="32.00" fill="#29235c">uuid</text>
<text text-anchor="start" x="1014.59" y="-547.31" font-family="Helvetica,sans-Serif" font-size="32.00" fill="#29235c"> </text>
<text text-anchor="start" x="1023.48" y="-547.31" font-family="Helvetica,sans-Serif" font-weight="bold" font-size="32.00" fill="#29235c">(!)</text>
<polygon fill="#e7e2dd" stroke="transparent" points="675.68,-466.11 675.68,-526.11 1064.68,-526.11 1064.68,-466.11 675.68,-466.11"/>
<polygon fill="none" stroke="#29235c" points="675.68,-466.11 675.68,-526.11 1064.68,-526.11 1064.68,-466.11 675.68,-466.11"/>
<text text-anchor="start" x="686.68" y="-486.31" font-family="Helvetica,sans-Serif" font-size="32.00" fill="#29235c">createdAt &#160;&#160;&#160;</text>
<text text-anchor="start" x="867.03" y="-487.31" font-family="Helvetica,sans-Serif" font-style="italic" font-size="32.00" fill="#29235c">timestamp</text>
<text text-anchor="start" x="1014.59" y="-487.31" font-family="Helvetica,sans-Serif" font-size="32.00" fill="#29235c"> </text>
<text text-anchor="start" x="1023.48" y="-487.31" font-family="Helvetica,sans-Serif" font-weight="bold" font-size="32.00" fill="#29235c">(!)</text>
<polygon fill="#e7e2dd" stroke="transparent" points="675.68,-406.11 675.68,-466.11 1064.68,-466.11 1064.68,-406.11 675.68,-406.11"/>
<polygon fill="none" stroke="#29235c" points="675.68,-406.11 675.68,-466.11 1064.68,-466.11 1064.68,-406.11 675.68,-406.11"/>
<text text-anchor="start" x="686.46" y="-426.31" font-family="Helvetica,sans-Serif" font-size="32.00" fill="#29235c">updatedAt &#160;&#160;&#160;</text>
<text text-anchor="start" x="867.35" y="-427.31" font-family="Helvetica,sans-Serif" font-style="italic" font-size="32.00" fill="#29235c">timestamp</text>
<text text-anchor="start" x="1014.91" y="-427.31" font-family="Helvetica,sans-Serif" font-size="32.00" fill="#29235c"> </text>
<text text-anchor="start" x="1023.81" y="-427.31" font-family="Helvetica,sans-Serif" font-weight="bold" font-size="32.00" fill="#29235c">(!)</text>
<polygon fill="none" stroke="#29235c" stroke-width="2" points="674.18,-405.11 674.18,-827.11 1065.18,-827.11 1065.18,-405.11 674.18,-405.11"/>
</g>
<!-- comments&#45;&gt;posts -->
<!-- comments&#45;&gt;posts -->
<g id="edge2" class="edge">
<title>comments:e&#45;&gt;posts:w</title>
<path fill="none" stroke="#29235c" stroke-width="3" d="M473.89,-537.11C595.98,-537.11 551.76,-725 664.42,-735.64"/>
<polygon fill="#29235c" stroke="#29235c" stroke-width="3" points="664.53,-739.15 674.68,-736.11 664.85,-732.15 664.53,-739.15"/>
<text text-anchor="middle" x="665.78" y="-745.71" font-family="Helvetica,sans-Serif" font-size="32.00" fill="#29235c">1</text>
<text text-anchor="middle" x="480.12" y="-546.71" font-family="Helvetica,sans-Serif" font-size="32.00" fill="#29235c">*</text>
</g>
<!-- users -->
<g id="users" class="node">
<title>users</title>
<ellipse fill="none" stroke="black" stroke-width="0" cx="1479.14" cy="-712.11" rx="295.64" ry="427.19"/>
<polygon fill="#1d71b8" stroke="transparent" points="1272.14,-952.11 1272.14,-1012.11 1686.14,-1012.11 1686.14,-952.11 1272.14,-952.11"/>
<polygon fill="none" stroke="#29235c" points="1272.14,-952.11 1272.14,-1012.11 1686.14,-1012.11 1686.14,-952.11 1272.14,-952.11"/>
<text text-anchor="start" x="1377.78" y="-973.31" font-family="Helvetica,sans-Serif" font-weight="bold" font-size="32.00" fill="#ffffff"> &#160;&#160;&#160;&#160;&#160;&#160;users &#160;&#160;&#160;&#160;&#160;&#160;</text>
<polygon fill="#e7e2dd" stroke="transparent" points="1272.14,-892.11 1272.14,-952.11 1686.14,-952.11 1686.14,-892.11 1272.14,-892.11"/>
<polygon fill="none" stroke="#29235c" points="1272.14,-892.11 1272.14,-952.11 1686.14,-952.11 1686.14,-892.11 1272.14,-892.11"/>
<text text-anchor="start" x="1283.14" y="-913.31" font-family="Helvetica,sans-Serif" font-weight="bold" font-size="32.00" fill="#29235c">id</text>
<text text-anchor="start" x="1308.03" y="-913.31" font-family="Helvetica,sans-Serif" font-size="32.00" fill="#29235c"> &#160;&#160;&#160;</text>
<text text-anchor="start" x="1575.58" y="-913.31" font-family="Helvetica,sans-Serif" font-style="italic" font-size="32.00" fill="#29235c">uuid</text>
<text text-anchor="start" x="1636.05" y="-913.31" font-family="Helvetica,sans-Serif" font-size="32.00" fill="#29235c"> </text>
<text text-anchor="start" x="1644.94" y="-913.31" font-family="Helvetica,sans-Serif" font-weight="bold" font-size="32.00" fill="#29235c">(!)</text>
<polygon fill="#e7e2dd" stroke="transparent" points="1272.14,-832.11 1272.14,-892.11 1686.14,-892.11 1686.14,-832.11 1272.14,-832.11"/>
<polygon fill="none" stroke="#29235c" points="1272.14,-832.11 1272.14,-892.11 1686.14,-892.11 1686.14,-832.11 1272.14,-832.11"/>
<text text-anchor="start" x="1283.14" y="-852.31" font-family="Helvetica,sans-Serif" font-size="32.00" fill="#29235c">name &#160;&#160;&#160;</text>
<text text-anchor="start" x="1454.71" y="-853.31" font-family="Helvetica,sans-Serif" font-style="italic" font-size="32.00" fill="#29235c">varchar(255)</text>
<text text-anchor="start" x="1636.05" y="-853.31" font-family="Helvetica,sans-Serif" font-size="32.00" fill="#29235c"> </text>
<text text-anchor="start" x="1644.94" y="-853.31" font-family="Helvetica,sans-Serif" font-weight="bold" font-size="32.00" fill="#29235c">(!)</text>
<polygon fill="#e7e2dd" stroke="transparent" points="1272.14,-772.11 1272.14,-832.11 1686.14,-832.11 1686.14,-772.11 1272.14,-772.11"/>
<polygon fill="none" stroke="#29235c" points="1272.14,-772.11 1272.14,-832.11 1686.14,-832.11 1686.14,-772.11 1272.14,-772.11"/>
<text text-anchor="start" x="1283.14" y="-792.31" font-family="Helvetica,sans-Serif" font-size="32.00" fill="#29235c">age &#160;&#160;&#160;</text>
<text text-anchor="start" x="1538.25" y="-793.31" font-family="Helvetica,sans-Serif" font-style="italic" font-size="32.00" fill="#29235c">integer</text>
<text text-anchor="start" x="1636.05" y="-793.31" font-family="Helvetica,sans-Serif" font-size="32.00" fill="#29235c"> </text>
<text text-anchor="start" x="1644.94" y="-793.31" font-family="Helvetica,sans-Serif" font-weight="bold" font-size="32.00" fill="#29235c">(!)</text>
<polygon fill="#e7e2dd" stroke="transparent" points="1272.14,-712.11 1272.14,-772.11 1686.14,-772.11 1686.14,-712.11 1272.14,-712.11"/>
<polygon fill="none" stroke="#29235c" points="1272.14,-712.11 1272.14,-772.11 1686.14,-772.11 1686.14,-712.11 1272.14,-712.11"/>
<text text-anchor="start" x="1282.9" y="-732.31" font-family="Helvetica,sans-Serif" font-size="32.00" fill="#29235c">password &#160;&#160;&#160;</text>
<text text-anchor="start" x="1454.92" y="-733.31" font-family="Helvetica,sans-Serif" font-style="italic" font-size="32.00" fill="#29235c">varchar(255)</text>
<text text-anchor="start" x="1636.27" y="-733.31" font-family="Helvetica,sans-Serif" font-size="32.00" fill="#29235c"> </text>
<text text-anchor="start" x="1645.16" y="-733.31" font-family="Helvetica,sans-Serif" font-weight="bold" font-size="32.00" fill="#29235c">(!)</text>
<polygon fill="#e7e2dd" stroke="transparent" points="1272.14,-652.11 1272.14,-712.11 1686.14,-712.11 1686.14,-652.11 1272.14,-652.11"/>
<polygon fill="none" stroke="#29235c" points="1272.14,-652.11 1272.14,-712.11 1686.14,-712.11 1686.14,-652.11 1272.14,-652.11"/>
<text text-anchor="start" x="1283.14" y="-672.31" font-family="Helvetica,sans-Serif" font-size="32.00" fill="#29235c">email &#160;&#160;&#160;</text>
<text text-anchor="start" x="1454.71" y="-673.31" font-family="Helvetica,sans-Serif" font-style="italic" font-size="32.00" fill="#29235c">varchar(255)</text>
<text text-anchor="start" x="1636.05" y="-673.31" font-family="Helvetica,sans-Serif" font-size="32.00" fill="#29235c"> </text>
<text text-anchor="start" x="1644.94" y="-673.31" font-family="Helvetica,sans-Serif" font-weight="bold" font-size="32.00" fill="#29235c">(!)</text>
<polygon fill="#e7e2dd" stroke="transparent" points="1272.14,-592.11 1272.14,-652.11 1686.14,-652.11 1686.14,-592.11 1272.14,-592.11"/>
<polygon fill="none" stroke="#29235c" points="1272.14,-592.11 1272.14,-652.11 1686.14,-652.11 1686.14,-592.11 1272.14,-592.11"/>
<text text-anchor="start" x="1283.14" y="-612.31" font-family="Helvetica,sans-Serif" font-size="32.00" fill="#29235c">emailUpdates &#160;&#160;&#160;</text>
<text text-anchor="start" x="1522.22" y="-613.31" font-family="Helvetica,sans-Serif" font-style="italic" font-size="32.00" fill="#29235c">boolean</text>
<text text-anchor="start" x="1636.05" y="-613.31" font-family="Helvetica,sans-Serif" font-size="32.00" fill="#29235c"> </text>
<text text-anchor="start" x="1644.94" y="-613.31" font-family="Helvetica,sans-Serif" font-weight="bold" font-size="32.00" fill="#29235c">(!)</text>
<polygon fill="#e7e2dd" stroke="transparent" points="1272.14,-532.11 1272.14,-592.11 1686.14,-592.11 1686.14,-532.11 1272.14,-532.11"/>
<polygon fill="none" stroke="#29235c" points="1272.14,-532.11 1272.14,-592.11 1686.14,-592.11 1686.14,-532.11 1272.14,-532.11"/>
<text text-anchor="start" x="1283.14" y="-552.31" font-family="Helvetica,sans-Serif" font-size="32.00" fill="#29235c">userRole &#160;&#160;&#160;</text>
<text text-anchor="start" x="1508.04" y="-553.31" font-family="Helvetica,sans-Serif" font-style="italic" font-size="32.00" fill="#29235c">userRole</text>
<text text-anchor="start" x="1636.05" y="-553.31" font-family="Helvetica,sans-Serif" font-size="32.00" fill="#29235c"> </text>
<text text-anchor="start" x="1644.94" y="-553.31" font-family="Helvetica,sans-Serif" font-weight="bold" font-size="32.00" fill="#29235c">(!)</text>
<polygon fill="#e7e2dd" stroke="transparent" points="1272.14,-472.11 1272.14,-532.11 1686.14,-532.11 1686.14,-472.11 1272.14,-472.11"/>
<polygon fill="none" stroke="#29235c" points="1272.14,-472.11 1272.14,-532.11 1686.14,-532.11 1686.14,-472.11 1272.14,-472.11"/>
<text text-anchor="start" x="1283.14" y="-492.31" font-family="Helvetica,sans-Serif" font-size="32.00" fill="#29235c">createdAt &#160;&#160;&#160;</text>
<text text-anchor="start" x="1488.49" y="-493.31" font-family="Helvetica,sans-Serif" font-style="italic" font-size="32.00" fill="#29235c">timestamp</text>
<text text-anchor="start" x="1636.05" y="-493.31" font-family="Helvetica,sans-Serif" font-size="32.00" fill="#29235c"> </text>
<text text-anchor="start" x="1644.94" y="-493.31" font-family="Helvetica,sans-Serif" font-weight="bold" font-size="32.00" fill="#29235c">(!)</text>
<polygon fill="#e7e2dd" stroke="transparent" points="1272.14,-412.11 1272.14,-472.11 1686.14,-472.11 1686.14,-412.11 1272.14,-412.11"/>
<polygon fill="none" stroke="#29235c" points="1272.14,-412.11 1272.14,-472.11 1686.14,-472.11 1686.14,-412.11 1272.14,-412.11"/>
<text text-anchor="start" x="1283.14" y="-432.31" font-family="Helvetica,sans-Serif" font-size="32.00" fill="#29235c">updatedAt &#160;&#160;&#160;</text>
<text text-anchor="start" x="1488.49" y="-433.31" font-family="Helvetica,sans-Serif" font-style="italic" font-size="32.00" fill="#29235c">timestamp</text>
<text text-anchor="start" x="1636.05" y="-433.31" font-family="Helvetica,sans-Serif" font-size="32.00" fill="#29235c"> </text>
<text text-anchor="start" x="1644.94" y="-433.31" font-family="Helvetica,sans-Serif" font-weight="bold" font-size="32.00" fill="#29235c">(!)</text>
<polygon fill="none" stroke="#29235c" stroke-width="2" points="1271.14,-411.11 1271.14,-1013.11 1687.14,-1013.11 1687.14,-411.11 1271.14,-411.11"/>
</g>
<!-- comments&#45;&gt;users -->
<!-- comments&#45;&gt;users -->
<g id="edge4" class="edge">
<title>comments:e&#45;&gt;users:w</title>
<path fill="none" stroke="#29235c" stroke-width="3" d="M473.89,-597.11C613.03,-597.11 476.36,-384.79 591.79,-307.11 643.02,-272.63 1099.8,-267.98 1147.57,-307.11 1360.52,-481.52 1001.67,-911.02 1260.84,-921.9"/>
<polygon fill="#29235c" stroke="#29235c" stroke-width="3" points="1261.07,-925.4 1271.14,-922.11 1261.22,-918.4 1261.07,-925.4"/>
<text text-anchor="middle" x="1262.25" y="-931.71" font-family="Helvetica,sans-Serif" font-size="32.00" fill="#29235c">1</text>
<text text-anchor="middle" x="480.12" y="-606.71" font-family="Helvetica,sans-Serif" font-size="32.00" fill="#29235c">*</text>
</g>
<!-- likes -->
<g id="likes" class="node">
<title>likes</title>
<ellipse fill="none" stroke="black" stroke-width="0" cx="277.89" cy="-1130.11" rx="271.56" ry="214.92"/>
<polygon fill="#1d71b8" stroke="transparent" points="87.89,-1220.11 87.89,-1280.11 467.89,-1280.11 467.89,-1220.11 87.89,-1220.11"/>
<polygon fill="none" stroke="#29235c" points="87.89,-1220.11 87.89,-1280.11 467.89,-1280.11 467.89,-1220.11 87.89,-1220.11"/>
<text text-anchor="start" x="183.65" y="-1241.31" font-family="Helvetica,sans-Serif" font-weight="bold" font-size="32.00" fill="#ffffff"> &#160;&#160;&#160;&#160;&#160;&#160;likes &#160;&#160;&#160;&#160;&#160;&#160;</text>
<polygon fill="#e7e2dd" stroke="transparent" points="87.89,-1160.11 87.89,-1220.11 467.89,-1220.11 467.89,-1160.11 87.89,-1160.11"/>
<polygon fill="none" stroke="#29235c" points="87.89,-1160.11 87.89,-1220.11 467.89,-1220.11 467.89,-1160.11 87.89,-1160.11"/>
<text text-anchor="start" x="98.89" y="-1181.31" font-family="Helvetica,sans-Serif" font-weight="bold" font-size="32.00" fill="#29235c">id</text>
<text text-anchor="start" x="123.78" y="-1181.31" font-family="Helvetica,sans-Serif" font-size="32.00" fill="#29235c"> &#160;&#160;&#160;</text>
<text text-anchor="start" x="357.33" y="-1181.31" font-family="Helvetica,sans-Serif" font-style="italic" font-size="32.00" fill="#29235c">uuid</text>
<text text-anchor="start" x="417.8" y="-1181.31" font-family="Helvetica,sans-Serif" font-size="32.00" fill="#29235c"> </text>
<text text-anchor="start" x="426.69" y="-1181.31" font-family="Helvetica,sans-Serif" font-weight="bold" font-size="32.00" fill="#29235c">(!)</text>
<polygon fill="#e7e2dd" stroke="transparent" points="87.89,-1100.11 87.89,-1160.11 467.89,-1160.11 467.89,-1100.11 87.89,-1100.11"/>
<polygon fill="none" stroke="#29235c" points="87.89,-1100.11 87.89,-1160.11 467.89,-1160.11 467.89,-1100.11 87.89,-1100.11"/>
<text text-anchor="start" x="98.89" y="-1120.31" font-family="Helvetica,sans-Serif" font-size="32.00" fill="#29235c">userId &#160;&#160;&#160;</text>
<text text-anchor="start" x="357.33" y="-1121.31" font-family="Helvetica,sans-Serif" font-style="italic" font-size="32.00" fill="#29235c">uuid</text>
<text text-anchor="start" x="417.8" y="-1121.31" font-family="Helvetica,sans-Serif" font-size="32.00" fill="#29235c"> </text>
<text text-anchor="start" x="426.69" y="-1121.31" font-family="Helvetica,sans-Serif" font-weight="bold" font-size="32.00" fill="#29235c">(!)</text>
<polygon fill="#e7e2dd" stroke="transparent" points="87.89,-1040.11 87.89,-1100.11 467.89,-1100.11 467.89,-1040.11 87.89,-1040.11"/>
<polygon fill="none" stroke="#29235c" points="87.89,-1040.11 87.89,-1100.11 467.89,-1100.11 467.89,-1040.11 87.89,-1040.11"/>
<text text-anchor="start" x="98.89" y="-1060.31" font-family="Helvetica,sans-Serif" font-size="32.00" fill="#29235c">postId &#160;&#160;&#160;</text>
<text text-anchor="start" x="357.33" y="-1061.31" font-family="Helvetica,sans-Serif" font-style="italic" font-size="32.00" fill="#29235c">uuid</text>
<text text-anchor="start" x="417.8" y="-1061.31" font-family="Helvetica,sans-Serif" font-size="32.00" fill="#29235c"> </text>
<text text-anchor="start" x="426.69" y="-1061.31" font-family="Helvetica,sans-Serif" font-weight="bold" font-size="32.00" fill="#29235c">(!)</text>
<polygon fill="#e7e2dd" stroke="transparent" points="87.89,-980.11 87.89,-1040.11 467.89,-1040.11 467.89,-980.11 87.89,-980.11"/>
<polygon fill="none" stroke="#29235c" points="87.89,-980.11 87.89,-1040.11 467.89,-1040.11 467.89,-980.11 87.89,-980.11"/>
<text text-anchor="start" x="98.64" y="-1000.31" font-family="Helvetica,sans-Serif" font-size="32.00" fill="#29235c">createdAt &#160;&#160;&#160;</text>
<text text-anchor="start" x="270.57" y="-1001.31" font-family="Helvetica,sans-Serif" font-style="italic" font-size="32.00" fill="#29235c">timestamp</text>
<text text-anchor="start" x="418.13" y="-1001.31" font-family="Helvetica,sans-Serif" font-size="32.00" fill="#29235c"> </text>
<text text-anchor="start" x="427.02" y="-1001.31" font-family="Helvetica,sans-Serif" font-weight="bold" font-size="32.00" fill="#29235c">(!)</text>
<polygon fill="none" stroke="#29235c" stroke-width="2" points="86.89,-979.11 86.89,-1281.11 468.89,-1281.11 468.89,-979.11 86.89,-979.11"/>
</g>
<!-- likes&#45;&gt;posts -->
<!-- likes&#45;&gt;posts -->
<g id="edge6" class="edge">
<title>likes:e&#45;&gt;posts:w</title>
<path fill="none" stroke="#29235c" stroke-width="3" d="M468.89,-1070.11C639.68,-1070.11 506.05,-749.67 664.35,-736.52"/>
<polygon fill="#29235c" stroke="#29235c" stroke-width="3" points="664.83,-740.01 674.68,-736.11 664.55,-733.01 664.83,-740.01"/>
<text text-anchor="middle" x="665.78" y="-707.31" font-family="Helvetica,sans-Serif" font-size="32.00" fill="#29235c">1</text>
<text text-anchor="middle" x="475.12" y="-1079.71" font-family="Helvetica,sans-Serif" font-size="32.00" fill="#29235c">*</text>
</g>
<!-- likes&#45;&gt;users -->
<!-- likes&#45;&gt;users -->
<g id="edge8" class="edge">
<title>likes:e&#45;&gt;users:w</title>
<path fill="none" stroke="#29235c" stroke-width="3" d="M468.89,-1130.11C551.02,-1130.11 518.67,-1029.52 591.79,-992.11 656.83,-958.82 1156.13,-924.74 1260.84,-922.25"/>
<polygon fill="#29235c" stroke="#29235c" stroke-width="3" points="1261.19,-925.75 1271.14,-922.11 1261.09,-918.75 1261.19,-925.75"/>
<text text-anchor="middle" x="1280.04" y="-931.71" font-family="Helvetica,sans-Serif" font-size="32.00" fill="#29235c">1</text>
<text text-anchor="middle" x="475.12" y="-1139.71" font-family="Helvetica,sans-Serif" font-size="32.00" fill="#29235c">*</text>
</g>
<!-- postCategories -->
<g id="postCategories" class="node">
<title>postCategories</title>
<ellipse fill="none" stroke="black" stroke-width="0" cx="277.89" cy="-149.11" rx="258.19" ry="130.22"/>
<polygon fill="#1d71b8" stroke="transparent" points="97.89,-179.11 97.89,-239.11 458.89,-239.11 458.89,-179.11 97.89,-179.11"/>
<polygon fill="none" stroke="#29235c" points="97.89,-179.11 97.89,-239.11 458.89,-239.11 458.89,-179.11 97.89,-179.11"/>
<text text-anchor="start" x="108.56" y="-200.31" font-family="Helvetica,sans-Serif" font-weight="bold" font-size="32.00" fill="#ffffff"> &#160;&#160;&#160;&#160;&#160;&#160;postCategories &#160;&#160;&#160;&#160;&#160;&#160;</text>
<polygon fill="#e7e2dd" stroke="transparent" points="97.89,-119.11 97.89,-179.11 458.89,-179.11 458.89,-119.11 97.89,-119.11"/>
<polygon fill="none" stroke="#29235c" points="97.89,-119.11 97.89,-179.11 458.89,-179.11 458.89,-119.11 97.89,-119.11"/>
<text text-anchor="start" x="108.89" y="-140.31" font-family="Helvetica,sans-Serif" font-weight="bold" font-size="32.00" fill="#29235c">postId</text>
<text text-anchor="start" x="196.04" y="-140.31" font-family="Helvetica,sans-Serif" font-size="32.00" fill="#29235c"> &#160;&#160;&#160;</text>
<text text-anchor="start" x="348.33" y="-140.31" font-family="Helvetica,sans-Serif" font-style="italic" font-size="32.00" fill="#29235c">uuid</text>
<text text-anchor="start" x="408.8" y="-140.31" font-family="Helvetica,sans-Serif" font-size="32.00" fill="#29235c"> </text>
<text text-anchor="start" x="417.69" y="-140.31" font-family="Helvetica,sans-Serif" font-weight="bold" font-size="32.00" fill="#29235c">(!)</text>
<polygon fill="#e7e2dd" stroke="transparent" points="97.89,-59.11 97.89,-119.11 458.89,-119.11 458.89,-59.11 97.89,-59.11"/>
<polygon fill="none" stroke="#29235c" points="97.89,-59.11 97.89,-119.11 458.89,-119.11 458.89,-59.11 97.89,-59.11"/>
<text text-anchor="start" x="108.89" y="-80.31" font-family="Helvetica,sans-Serif" font-weight="bold" font-size="32.00" fill="#29235c">categoryId</text>
<text text-anchor="start" x="258.28" y="-80.31" font-family="Helvetica,sans-Serif" font-size="32.00" fill="#29235c"> &#160;&#160;&#160;</text>
<text text-anchor="start" x="348.33" y="-80.31" font-family="Helvetica,sans-Serif" font-style="italic" font-size="32.00" fill="#29235c">uuid</text>
<text text-anchor="start" x="408.8" y="-80.31" font-family="Helvetica,sans-Serif" font-size="32.00" fill="#29235c"> </text>
<text text-anchor="start" x="417.69" y="-80.31" font-family="Helvetica,sans-Serif" font-weight="bold" font-size="32.00" fill="#29235c">(!)</text>
<polygon fill="none" stroke="#29235c" stroke-width="2" points="96.39,-58.11 96.39,-240.11 459.39,-240.11 459.39,-58.11 96.39,-58.11"/>
</g>
<!-- postCategories&#45;&gt;categories -->
<!-- postCategories&#45;&gt;categories -->
<g id="edge12" class="edge">
<title>postCategories:e&#45;&gt;categories:w</title>
<path fill="none" stroke="#29235c" stroke-width="3" d="M459.89,-89.11C560.61,-89.11 584.92,-127.43 680.57,-129.98"/>
<polygon fill="#29235c" stroke="#29235c" stroke-width="3" points="680.63,-133.48 690.68,-130.11 680.73,-126.48 680.63,-133.48"/>
<text text-anchor="middle" x="681.78" y="-139.71" font-family="Helvetica,sans-Serif" font-size="32.00" fill="#29235c">1</text>
<text text-anchor="middle" x="466.12" y="-69.91" font-family="Helvetica,sans-Serif" font-size="32.00" fill="#29235c">*</text>
</g>
<!-- postCategories&#45;&gt;posts -->
<!-- postCategories&#45;&gt;posts -->
<g id="edge10" class="edge">
<title>postCategories:e&#45;&gt;posts:w</title>
<path fill="none" stroke="#29235c" stroke-width="3" d="M459.89,-149.11C734.17,-149.11 405.43,-721.3 664.4,-735.83"/>
<polygon fill="#29235c" stroke="#29235c" stroke-width="3" points="664.59,-739.33 674.68,-736.11 664.78,-732.34 664.59,-739.33"/>
<text text-anchor="middle" x="683.57" y="-745.71" font-family="Helvetica,sans-Serif" font-size="32.00" fill="#29235c">1</text>
<text text-anchor="middle" x="466.12" y="-158.71" font-family="Helvetica,sans-Serif" font-size="32.00" fill="#29235c">*</text>
</g>
<!-- posts&#45;&gt;users -->
<!-- posts&#45;&gt;users -->
<g id="edge14" class="edge">
<title>posts:e&#45;&gt;users:w</title>
<path fill="none" stroke="#29235c" stroke-width="3" d="M1065.68,-556.11C1248.76,-556.11 1090.7,-908.65 1261.12,-921.73"/>
<polygon fill="#29235c" stroke="#29235c" stroke-width="3" points="1261.02,-925.23 1271.14,-922.11 1261.28,-918.24 1261.02,-925.23"/>
<text text-anchor="middle" x="1262.25" y="-893.31" font-family="Helvetica,sans-Serif" font-size="32.00" fill="#29235c">1</text>
<text text-anchor="middle" x="1059.46" y="-565.71" font-family="Helvetica,sans-Serif" font-size="32.00" fill="#29235c">*</text>
</g>
<!-- users&#45;&gt;userRole -->
<g id="edge15" class="edge">
<title>users:e&#45;&gt;userRole:w</title>
<path fill="none" stroke="#29235c" stroke-width="3" d="M1687.14,-562.11C1768.1,-562.11 1788.33,-562.11 1869.29,-562.11"/>
</g>
</g>
</svg>
